<svg xmlns="http://www.w3.org/2000/svg" viewBox="0 0 120 120" fill="none">
  <path d="m13 53 46-37 48 37" stroke="#59483f" stroke-width="3" stroke-linecap="round" stroke-linejoin="round"/>
  <path d="M23 49v52h72V49L59 20z" fill="#fff3d5" stroke="#59483f" stroke-width="2.7" stroke-linejoin="round"/>
  <path d="M47 101V70c0-8 5-13 12-13s12 5 12 13v31" fill="#e6cba6" stroke="#59483f" stroke-width="2.3"/>
  <path d="m57 32-5 11 7 2-4 11 13-16-8-1 4-7z" fill="#e8bd53" stroke="#59483f" stroke-width="1.5" stroke-linejoin="round"/>
  <path d="M34 78c0-5 4-10 4-10s4 5 4 10a4 4 0 1 1-8 0z" fill="#8ac6dd" stroke="#59483f" stroke-width="1.5"/>
  <path d="M80 69h9v9h-9z" fill="#f3dce1" stroke="#59483f" stroke-width="1.5"/>
  <path d="M82 73h5m-5 3h4" stroke="#ba788b" stroke-width="1.2" stroke-linecap="round"/>
  <path d="m14 33 3-7m8 3 6-5m68 17 4-6m5 13 6-2" stroke="#d8819a" stroke-width="2" stroke-linecap="round"/>
  <path d="M16 106h90" stroke="#59483f" stroke-width="2.3" stroke-linecap="round"/>
</svg>
